<?xml version="1.0" encoding="iso-8859-1"?>
<!-- Generator: Adobe Illustrator 19.0.0, SVG Export Plug-In . SVG Version: 6.00 Build 0)  -->
<svg version="1.1" id="Layer_1" xmlns="http://www.w3.org/2000/svg" xmlns:xlink="http://www.w3.org/1999/xlink" x="0px" y="0px"
	 viewBox="0 0 504 504" style="enable-background:new 0 0 504 504;" xml:space="preserve">
<path style="fill:#0A4D7A;" d="M460,359.2c0,5.6-8,12.8-13.6,12.8H52.8c-5.6,0-8.8-7.2-8.8-12.8V117.6c0-6.4,3.2-9.6,8.8-9.6h393.6
	c5.6,0,13.6,3.2,13.6,9.6V359.2z"/>
<path style="fill:#106899;" d="M52.8,369.6c-5.6,0-8.8-4.8-8.8-10.4V117.6c0-6.4,3.2-9.6,8.8-9.6"/>
<path style="fill:#00233F;" d="M44,117.6c0-6.4,3.2-9.6,8.8-9.6h396.8c5.6,0,9.6,3.2,9.6,9.6v241.6c0,5.6-6.4,11.2-12,11.2"/>
<path style="fill:#EF3388;" d="M444,348V132c0-5.6-4.8-8-9.6-8H69.6c-4.8,0-9.6,3.2-9.6,8v216H444z"/>
<path style="fill:#D8257F;" d="M444,348V132c0-5.6-4.8-8-9.6-8H69.6c-5.6,0-9.6,4-9.6,9.6"/>
<circle style="fill:#27D68A;" cx="252.8" cy="115.2" r="3.2"/>
<path style="fill:#15AF83;" d="M252.8,112c1.6,0,3.2,1.6,3.2,3.2s-1.6,3.2-3.2,3.2"/>
<ellipse style="fill:#CFFFEF;" cx="251.18" cy="114.336" rx="0.8" ry="0.8"/>
<path style="fill:#BA1570;" d="M434.4,124H69.6c-4.8,0-9.6,3.2-9.6,8v16.8c0-4.8,4.8-8.8,9.6-8.8h364c5.6,0,9.6,4,9.6,8.8V132
	C444,127.2,439.2,124,434.4,124z"/>
<path style="fill:#B8D2D3;" d="M0,365.6c2.4,16,13.6,30.4,27.2,30.4h449.6c13.6,0,24.8-14.4,27.2-30.4H0z"/>
<path style="fill:#A7C9C9;" d="M476.8,396c13.6,0,24.8-14.4,27.2-30.4L4,364"/>
<path style="fill:#EDF4F4;" d="M504,364c0,4-2.4,8-4.8,8H4.8c-2.4,0-4.8-4-4.8-8l0,0c0-4,2.4-8,4.8-8h494.4
	C501.6,356,504,360,504,364L504,364z"/>
<path style="fill:#D6E4E5;" d="M504,365.6L504,365.6c0,4-2.4,6.4-4.8,6.4H4.8c-2.4,0-4.8-2.4-4.8-6.4l0,0"/>
<path style="fill:#B8D2D3;" d="M207.2,356c4,8,4,16,12.8,16h64c8.8,0,8.8-8,12.8-16H207.2z"/>
<g>
	<path style="fill:#8DB2B2;" d="M212,356c3.2,8,3.2,16,11.2,16H280c8,0,8-8,11.2-16H212z"/>
	<path style="fill:#8DB2B2;" d="M460,385.6c0,1.6-0.8,2.4-2.4,2.4h-58.4c-1.6,0-2.4-0.8-2.4-2.4v-2.4c0-1.6,0.8-2.4,2.4-2.4h58.4
		c1.6,0,2.4,0.8,2.4,2.4V385.6z"/>
</g>
<path style="fill:#7AA09F;" d="M460,385.6L460,385.6c0,1.6-0.8,2.4-2.4,2.4h-58.4c-1.6,0-2.4-0.8-2.4-2.4l0,0"/>
<g>
</g>
<g>
</g>
<g>
</g>
<g>
</g>
<g>
</g>
<g>
</g>
<g>
</g>
<g>
</g>
<g>
</g>
<g>
</g>
<g>
</g>
<g>
</g>
<g>
</g>
<g>
</g>
<g>
</g>
</svg>
